<?xml version="1.0" standalone="no"?>
<!DOCTYPE svg PUBLIC "-//W3C//DTD SVG 20010904//EN"
 "http://www.w3.org/TR/2001/REC-SVG-20010904/DTD/svg10.dtd">
<svg version="1.0" xmlns="http://www.w3.org/2000/svg"
 width="1024.000000pt" height="768.000000pt" viewBox="0 0 1024.000000 768.000000"
 preserveAspectRatio="xMidYMid meet">

<g transform="translate(0.000000,768.000000) scale(0.100000,-0.100000)"
fill="#000000" stroke="none">
<path d="M0 3840 l0 -3840 5120 0 5120 0 0 3840 0 3840 -5120 0 -5120 0 0
-3840z m6919 985 l159 -200 -99 -3 -99 -3 -2 -544 -3 -545 -132 68 -133 67 0
477 0 477 -95 3 -94 3 162 202 c89 112 165 202 169 200 4 -1 79 -92 167 -202z
m-869 140 c42 -93 53 -161 47 -305 -7 -178 -47 -321 -122 -440 -42 -66 -42
-33 0 36 81 135 125 355 107 529 -8 69 -22 116 -69 224 -4 9 -2 12 5 7 7 -4
21 -27 32 -51z m-1869 -7 c-41 -75 -55 -146 -55 -278 -1 -169 32 -297 108
-427 38 -65 41 -73 27 -73 -13 0 -69 103 -98 179 -70 186 -72 439 -4 591 21
49 29 60 43 60 4 0 -5 -24 -21 -52z m346 -103 c202 -79 435 -175 446 -185 10
-9 -134 -62 -215 -80 -103 -23 -196 16 -291 121 -46 50 -127 180 -127 203 0
12 21 5 187 -59z m1343 61 c0 -17 -40 -92 -75 -141 -142 -200 -271 -233 -507
-133 -27 11 -48 23 -48 27 0 6 229 100 480 198 131 51 150 57 150 49z m-916
-568 c-20 -35 -46 -68 -54 -68 -5 0 3 18 17 40 15 22 31 40 35 40 5 0 6 -6 2
-12z m1419 -1142 c42 7 47 -3 16 -32 -21 -19 -22 -55 -4 -96 5 -14 2 -18 -13
-18 -12 0 -24 5 -27 10 -11 18 -41 11 -65 -15 -32 -34 -40 -31 -37 12 2 32 -3
40 -33 60 -46 32 -47 39 -6 47 40 8 51 19 61 66 l8 34 31 -37 c28 -33 34 -36
69 -31z m-1663 -1476 c0 -44 2 -80 5 -80 4 0 20 8 38 17 48 25 148 23 184 -3
42 -31 53 -61 53 -146 l0 -78 -64 0 -64 0 -4 75 c-2 41 -9 80 -16 87 -7 7 -31
13 -53 13 -59 0 -79 -28 -79 -111 l0 -64 -66 0 -66 0 6 168 c3 92 6 175 6 185
0 14 10 17 60 17 l60 0 0 -80z m501 70 c11 -6 19 -21 19 -35 0 -30 -26 -45
-76 -45 -36 0 -74 22 -74 43 0 6 7 19 17 29 18 20 82 25 114 8z m889 -25 c0
-33 -2 -35 -34 -35 -52 0 -66 -9 -66 -41 0 -28 1 -29 51 -29 l50 0 -3 -37 c-3
-38 -3 -38 -50 -41 l-48 -3 0 -75 0 -74 -65 0 -65 0 0 74 0 75 -32 3 c-30 3
-33 6 -33 38 0 32 3 35 33 38 26 3 32 8 32 27 0 72 60 114 163 115 l67 0 0
-35z m-1602 -32 l-3 -38 -72 -3 -73 -3 0 -129 0 -130 -70 0 -69 0 -3 133 -3
132 -72 3 -73 3 0 34 0 35 221 0 220 0 -3 -37z m1158 -83 c53 -23 84 -57 84
-92 l0 -28 -145 0 c-118 0 -143 -3 -139 -14 13 -33 94 -47 142 -23 18 9 45 12
82 8 l55 -6 -28 -27 c-79 -75 -315 -58 -370 26 -32 48 -19 99 35 137 68 49
196 58 284 19z m-436 -100 l0 -120 -65 0 -65 0 0 113 c0 63 3 117 7 120 3 4
33 7 65 7 l58 0 0 -120z"/>
<path d="M5491 1617 c-50 -25 -37 -37 43 -37 79 0 91 8 54 34 -27 19 -64 20
-97 3z"/>
</g>
</svg>
